<svg width="9" height="10" viewBox="0 0 9 10" fill="none" xmlns="http://www.w3.org/2000/svg">
<path d="M4.968 6.06V4.716H8.64V4.92C8.64 6.016 8.396 6.916 7.908 7.62C7.188 8.66 6.128 9.18 4.728 9.18C3.488 9.18 2.476 8.796 1.692 8.028C0.916 7.252 0.528 6.244 0.528 5.004C0.528 3.764 0.924 2.756 1.716 1.98C2.516 1.204 3.536 0.816 4.776 0.816C5.304 0.816 5.784 0.888 6.216 1.032C6.648 1.176 7 1.368 7.272 1.608C7.544 1.848 7.744 2.048 7.872 2.208C8 2.36 8.112 2.524 8.208 2.7L6.852 3.432C6.788 3.328 6.712 3.224 6.624 3.12C6.544 3.008 6.42 2.88 6.252 2.736C6.084 2.584 5.868 2.464 5.604 2.376C5.348 2.28 5.068 2.232 4.764 2.232C3.988 2.232 3.356 2.504 2.868 3.048C2.38 3.584 2.136 4.244 2.136 5.028C2.136 5.74 2.356 6.376 2.796 6.936C3.236 7.488 3.888 7.764 4.752 7.764C5.352 7.764 5.86 7.624 6.276 7.344C6.7 7.064 6.952 6.636 7.032 6.06H4.968Z" fill="#010101"/>
</svg>
