<svg width="6" height="10" viewBox="0 0 6 10" fill="none" xmlns="http://www.w3.org/2000/svg">
<path d="M5.664 1.752L4.848 2.82C4.504 2.364 4.068 2.136 3.54 2.136C3.156 2.136 2.876 2.232 2.7 2.424C2.524 2.608 2.436 2.824 2.436 3.072C2.436 3.288 2.52 3.468 2.688 3.612C2.816 3.732 3.136 3.884 3.648 4.068C4.44 4.34 4.98 4.608 5.268 4.872C5.724 5.28 5.952 5.84 5.952 6.552C5.952 7.336 5.692 7.972 5.172 8.46C4.66 8.94 3.992 9.18 3.168 9.18C2.016 9.18 1.096 8.676 0.408 7.668L1.428 6.696C1.604 7.056 1.848 7.324 2.16 7.5C2.472 7.676 2.788 7.764 3.108 7.764C3.468 7.764 3.764 7.664 3.996 7.464C4.228 7.256 4.344 6.988 4.344 6.66C4.344 6.38 4.24 6.14 4.032 5.94C3.84 5.764 3.428 5.568 2.796 5.352C2.204 5.152 1.76 4.92 1.464 4.656C1.04 4.288 0.828 3.792 0.828 3.168C0.828 2.52 1.048 1.968 1.488 1.512C1.928 1.048 2.564 0.816 3.396 0.816C4.3 0.816 5.056 1.128 5.664 1.752Z" fill="#010101"/>
</svg>
